<?xml version="1.0" encoding="UTF-8"?><svg id="Laag_2" xmlns="http://www.w3.org/2000/svg" viewBox="0 0 991.98 745.18"><defs><style>.cls-1{fill:#fff;}</style></defs><g id="Laag_1-2"><g><g><path class="cls-1" d="M21.77,120.12h16.82c13.97,0,21.62-7.51,21.62-21.62v-16.22c0-1.5-.9-2.4-2.4-2.4h-15.01c-1.65,0-2.41,.9-2.41,2.4v12.01c0,4.05-2.1,6-6,6h-7.81c-3.9,0-6-1.95-6-6V25.82c0-3.9,1.95-6,6-6h7.81c3.9,0,6,2.1,6,6v12.01c0,1.5,.75,2.4,2.41,2.4h15.01c1.5,0,2.4-.9,2.4-2.4V21.62C60.21,7.51,52.55,0,38.59,0H21.77C7.66,0,0,7.51,0,21.62V98.5c0,14.11,7.66,21.62,21.77,21.62Z"/><path class="cls-1" d="M148.17,117.57L123.25,2.1c-.3-1.5-1.2-2.1-2.55-2.1h-20.87c-1.35,0-2.25,.6-2.55,2.1l-24.93,115.46c-.45,1.65,.3,2.55,1.95,2.55h16.07c1.35,0,2.1-.75,2.4-2.1l4.05-21.92h26.73l4.2,21.92c.3,1.35,1.05,2.1,2.41,2.1h15.92c1.8,0,2.4-.9,2.1-2.55Zm-47.6-38.89l9.61-52.4,9.61,52.4h-19.22Z"/><path class="cls-1" d="M164.06,120.12h15.61c1.5,0,2.4-.9,2.4-2.4v-47.9h28.23c1.5,0,2.41-.75,2.41-2.4v-15.01c0-1.5-.9-2.41-2.41-2.41h-28.23V19.82h37.24c1.5,0,2.41-.9,2.41-2.4V2.41c0-1.5-.9-2.41-2.41-2.41h-55.25c-1.65,0-2.41,.9-2.41,2.41V117.72c0,1.5,.75,2.4,2.41,2.4Z"/><path class="cls-1" d="M238.95,120.12h55.25c1.81,0,2.41-.9,2.41-2.4v-15.02c0-1.65-.6-2.4-2.41-2.4h-37.54v-30.33h28.68c1.5,0,2.41-.9,2.41-2.55v-14.87c0-1.65-.9-2.55-2.41-2.55h-28.68V19.97h37.54c1.81,0,2.41-1.05,2.41-2.55V2.41c0-1.5-.6-2.41-2.41-2.41h-55.25c-1.35,0-2.25,.9-2.25,2.41V117.72c0,1.5,.9,2.4,2.25,2.4Z"/><path class="cls-1" d="M409.18,98.5V21.77c0-14.11-7.51-21.77-21.62-21.77h-36.03c-1.65,0-2.41,.9-2.41,2.41V117.72c0,1.65,.75,2.4,2.41,2.4h36.03c14.11,0,21.62-7.51,21.62-21.62Zm-39.64,1.8V19.82h13.81c3.91,0,6,2.1,6,6.16V94.29c0,4.05-2.1,6-6,6h-13.81Z"/><path class="cls-1" d="M426.41,120.12h55.25c1.81,0,2.41-.9,2.41-2.4v-15.02c0-1.65-.6-2.4-2.41-2.4h-37.54v-30.33h28.68c1.5,0,2.41-.9,2.41-2.55v-14.87c0-1.65-.9-2.55-2.41-2.55h-28.68V19.97h37.54c1.81,0,2.41-1.05,2.41-2.55V2.41c0-1.5-.6-2.41-2.41-2.41h-55.25c-1.35,0-2.25,.9-2.25,2.41V117.72c0,1.5,.9,2.4,2.25,2.4Z"/></g><g><path class="cls-1" d="M142.08,601.92c-2.06,0-3.88-1.36-4.46-3.34l-54.11-184.96c-17.2,8.13-42.8,25.96-42.8,41.76v141.9c0,2.57-2.08,4.64-4.64,4.64H4.64c-2.56,0-4.64-2.08-4.64-4.64V171.11c0-2.56,2.08-4.64,4.64-4.64h31.43c2.56,0,4.64,2.08,4.64,4.64v220.55c13.75-9.71,26.07-15.22,28.4-16.23l33.48-15.04c15.01-7.29,16.13-15.93,16.17-16.29l-.02-168.31c0-1.23,.49-2.41,1.36-3.28,.87-.87,2.05-1.36,3.28-1.36h31.43c2.56,0,4.64,2.08,4.64,4.64v168.95c.03,1.2,.41,32.42-38.49,51.92l58.31,199.31c.41,1.4,.14,2.92-.74,4.09-.88,1.17-2.25,1.86-3.71,1.86h-32.75Z"/><path class="cls-1" d="M391.58,601.92c-2.06,0-3.88-1.36-4.46-3.34l-54.11-184.96c-16.91,7.99-42.27,25.58-42.79,41.27v142.39c0,1.23-.48,2.41-1.35,3.28-.87,.87-2.05,1.36-3.28,1.36h-31.43c-1.23,0-2.41-.49-3.28-1.36-.87-.87-1.36-2.05-1.36-3.28V241.88c-.12-2.98-.6-31.35,19.95-52.65,9-9.33,25.52-20.44,53.15-20.44h13.26c27.63,0,44.15,11.12,53.15,20.44,20.46,21.21,20.05,50.15,19.94,53.38v102.12c.04,1.2,.43,32.42-38.48,51.92l58.31,199.31c.41,1.4,.14,2.92-.74,4.09-.88,1.17-2.25,1.86-3.71,1.86h-32.75Zm-68.97-392.42c-10.75,0-18.5,2.57-23.69,7.84-8.82,8.96-8.7,23.96-8.7,24.11v150.16c13.1-9.26,25.04-14.72,28.39-16.18l33.48-15.03c15.01-7.3,16.13-15.93,16.17-16.3l-.02-102.21c.01-.7,.14-15.56-8.7-24.54-5.19-5.27-12.93-7.84-23.69-7.84h-13.26Z"/><path class="cls-1" d="M639.75,745.18c-1.73,0-3.36-.97-4.15-2.57l-31.43-63.01c-.32-.64-.49-1.35-.49-2.07V241.88c.01-.71,.19-15.52-8.7-24.54-5.18-5.27-12.93-7.84-23.69-7.84h-13.25c-10.86,0-18.66,2.62-23.85,8-8.52,8.83-8.55,23.57-8.55,23.71v356.07c.01,1.23-.48,2.41-1.35,3.28s-2.05,1.36-3.28,1.36h-31.43c-2.57,0-4.64-2.08-4.64-4.64V241.88c-.12-2.99-.57-31.37,19.95-52.65,9.01-9.33,25.54-20.45,53.15-20.45h13.25c27.63,0,44.15,11.12,53.15,20.45,20.45,21.2,20.06,50.14,19.94,53.37v497.93c0,2.15-1.47,4.02-3.57,4.52-.36,.08-.71,.12-1.07,.12Z"/><path class="cls-1" d="M955.9,601.92c-2.57,0-4.64-2.08-4.64-4.64V241.88c0-.7,.13-15.58-8.69-24.54-5.19-5.27-12.94-7.84-23.7-7.84h-13.25c-10.75,0-18.5,2.57-23.69,7.84-8.8,8.94-8.7,23.88-8.7,24.03v355.91c0,1.23-.48,2.41-1.35,3.28-.87,.87-2.05,1.36-3.28,1.36h-31.45c-2.57,0-4.64-2.08-4.64-4.64V241.88c.01-.71,.19-15.52-8.7-24.54-5.19-5.27-12.94-7.84-23.69-7.84h-13.25c-10.85,0-18.65,2.62-23.84,8-8.52,8.82-8.56,23.57-8.56,23.72v356.06c.01,1.23-.48,2.41-1.35,3.28s-2.05,1.36-3.28,1.36h-31.43c-2.57,0-4.64-2.08-4.64-4.64V241.88c-.12-2.99-.57-31.38,19.96-52.65,8.99-9.33,25.51-20.44,53.14-20.44h13.25c27.31,0,43.76,10.91,52.75,20.06h0c8.98-9.15,25.42-20.06,52.75-20.06h13.25c27.63,0,44.15,11.12,53.15,20.45,20.42,21.17,20.05,50.14,19.94,53.38v354.66c0,1.23-.48,2.41-1.35,3.28-.87,.87-2.05,1.36-3.28,1.36h-31.43Z"/></g></g></g></svg>