<?xml version="1.0" encoding="UTF-8"?>
<svg width="680px" height="163px" viewBox="0 0 680 163" version="1.1" xmlns="http://www.w3.org/2000/svg" xmlns:xlink="http://www.w3.org/1999/xlink">
    <title>TheHarbouClub_logo WIT</title>
    <defs>
        <polygon id="path-1" points="0.06 0.158 42.392 0.158 42.392 37.955 0.06 37.955"></polygon>
        <polygon id="path-3" points="0.208 0.956 107.494 0.956 107.494 40.94 0.208 40.94"></polygon>
    </defs>
    <g id="Page-1" stroke="none" stroke-width="1" fill="none" fill-rule="evenodd">
        <g id="TheHarbouClub_logo-WIT">
            <g id="Group-3" transform="translate(0.000000, 124.000000)">
                <mask id="mask-2" fill="white">
                    <use xlink:href="#path-1"></use>
                </mask>
                <g id="Clip-2"></g>
                <polyline id="Fill-1" fill="#FFFFFE" mask="url(#mask-2)" points="24.328 5.849 24.328 37.955 18.064 37.955 18.064 5.849 0 5.849 0 0.158 42.392 0.158 42.392 5.849 24.328 5.849"></polyline>
            </g>
            <polyline id="Fill-4" fill="#FFFFFE" points="77.476 161.955 77.476 148.123 52.679 148.123 52.679 161.955 46.413 161.955 46.413 129.849 52.679 129.849 52.679 142.43 77.476 142.43 77.476 129.849 83.743 129.849 83.743 161.955 77.476 161.955"></polyline>
            <polyline id="Fill-5" fill="#FFFFFE" points="94.705 161.955 94.705 129.849 128.064 129.849 128.064 135.539 100.969 135.539 100.969 142.43 119.819 142.43 119.819 148.123 100.969 148.123 100.969 156.267 129.267 156.267 129.267 161.955 94.705 161.955"></polyline>
            <polyline id="Fill-6" fill="#FFFFFE" points="190.402 161.955 190.402 145.198 160.123 145.198 160.123 161.955 153.856 161.955 153.856 124.158 160.123 124.158 160.123 139.507 190.402 139.507 190.402 124.158 196.668 124.158 196.668 161.955 190.402 161.955"></polyline>
            <path d="M223.713,135.174 L216.039,149.374 L231.335,149.374 L223.713,135.174 Z M238.174,161.955 L234.468,155.065 L212.905,155.065 L209.199,161.955 L202.308,161.955 L219.796,129.849 L227.575,129.849 L245.065,161.955 L238.174,161.955 L238.174,161.955 Z" id="Fill-7" fill="#FFFFFE"></path>
            <path d="M281.509,140.134 C281.509,136.95 279.576,135.539 275.454,135.539 L257.075,135.539 L257.075,144.467 L275.819,144.467 C279.576,144.467 281.509,142.952 281.509,140.134 Z M281.403,161.955 L272.998,150.158 L257.075,150.158 L257.075,161.955 L250.811,161.955 L250.811,129.849 L276.757,129.849 C283.597,129.849 287.93,133.87 287.93,140.03 C287.93,145.198 285.163,148.644 279.941,149.792 L288.608,161.955 L281.403,161.955 L281.403,161.955 Z" id="Fill-8" fill="#FFFFFE"></path>
            <path d="M329.853,152.611 C329.853,150.108 327.869,148.59 324.111,148.59 L303.749,148.59 L303.749,156.267 L323.588,156.267 C327.607,156.267 329.853,154.806 329.853,152.611 Z M328.756,139.142 C328.756,136.95 327.085,135.539 324.215,135.539 L303.749,135.539 L303.749,142.902 L324.004,142.902 C326.98,142.902 328.756,141.385 328.756,139.142 Z M336.169,153.288 C336.169,158.875 331.836,161.955 323.588,161.955 L297.485,161.955 L297.485,129.849 L323.9,129.849 C330.793,129.849 334.866,133.505 334.866,138.776 C334.866,141.542 333.663,143.633 331.052,145.353 C334.604,147.182 336.169,149.584 336.169,153.288 L336.169,153.288 Z" id="Fill-9" fill="#FFFFFE"></path>
            <path d="M364.518,134.443 C355.801,134.443 349.849,139.35 349.849,145.824 C349.849,152.558 355.593,157.257 364.518,157.257 C373.395,157.257 379.086,152.558 379.086,145.824 C379.086,139.3 373.185,134.443 364.518,134.443 Z M378.876,158.667 C375.276,161.331 370.21,162.897 364.518,162.897 C358.828,162.897 353.713,161.277 350.111,158.667 C345.62,155.379 343.375,151.097 343.375,145.824 C343.375,140.654 345.62,136.374 350.162,133.086 C353.817,130.425 358.985,128.753 364.518,128.753 C370.054,128.753 375.168,130.425 378.825,133.086 C383.315,136.374 385.612,140.654 385.612,145.824 C385.612,151.097 383.366,155.379 378.876,158.667 L378.876,158.667 Z" id="Fill-10" fill="#FFFFFE"></path>
            <path d="M412.971,162.897 C401.379,162.897 394.281,158.04 394.281,151.411 L394.281,129.849 L400.544,129.849 L400.544,150.158 C400.544,154.75 404.774,157.257 412.971,157.257 C421.115,157.257 425.344,154.699 425.344,150.158 L425.344,129.849 L431.608,129.849 L431.608,151.411 C431.608,158.04 424.506,162.897 412.971,162.897" id="Fill-11" fill="#FFFFFE"></path>
            <g id="Group-15" transform="translate(442.000000, 122.000000)">
                <mask id="mask-4" fill="white">
                    <use xlink:href="#path-3"></use>
                </mask>
                <g id="Clip-13"></g>
                <path d="M30.906,18.134 C30.906,14.95 28.972,13.539 24.85,13.539 L6.471,13.539 L6.471,22.467 L25.215,22.467 C28.972,22.467 30.906,20.952 30.906,18.134 Z M30.799,39.955 L22.394,28.158 L6.471,28.158 L6.471,39.955 L0.208,39.955 L0.208,7.849 L26.154,7.849 C32.994,7.849 37.327,11.87 37.327,18.03 C37.327,23.198 34.559,26.644 29.337,27.792 L38.004,39.955 L30.799,39.955 L30.799,39.955 Z" id="Fill-12" fill="#FFFFFE" mask="url(#mask-4)"></path>
                <path d="M101.803,12.809 C97.837,8.579 92.667,6.699 85.723,6.699 C75.179,6.699 68.025,12.758 68.025,20.952 C68.025,29.462 74.919,35.257 86.088,35.257 C92.878,35.257 97.837,33.379 101.856,29.046 L107.235,32.02 C101.753,38.443 95.121,41 85.723,41 C79.147,41 73.196,39.12 69.07,35.987 C64.006,32.177 61.5,27.112 61.5,20.952 C61.5,14.897 64.057,9.886 69.174,6.02 C73.35,2.838 79.252,0.956 85.723,0.956 C95.016,0.956 102.536,4.351 107.494,10.775 L101.803,12.809" id="Fill-14" fill="#FFFFFE" mask="url(#mask-4)"></path>
            </g>
            <polyline id="Fill-16" fill="#FFFFFE" points="557.955 161.955 557.955 129.849 564.218 129.849 564.218 156.267 589.018 156.267 589.018 161.955 557.955 161.955"></polyline>
            <path d="M611.626,162.897 C600.034,162.897 592.935,158.04 592.935,151.411 L592.935,129.849 L599.199,129.849 L599.199,150.158 C599.199,154.75 603.428,157.257 611.626,157.257 C619.769,157.257 623.999,154.699 623.999,150.158 L623.999,129.849 L630.262,129.849 L630.262,151.411 C630.262,158.04 623.162,162.897 611.626,162.897" id="Fill-17" fill="#FFFFFE"></path>
            <path d="M673.23,152.611 C673.23,150.108 671.246,148.59 667.489,148.59 L647.127,148.59 L647.127,156.267 L666.965,156.267 C670.984,156.267 673.23,154.806 673.23,152.611 Z M672.133,139.142 C672.133,136.95 670.461,135.539 667.592,135.539 L647.127,135.539 L647.127,142.902 L667.381,142.902 C670.358,142.902 672.133,141.385 672.133,139.142 Z M679.546,153.288 C679.546,158.875 675.213,161.955 666.965,161.955 L640.862,161.955 L640.862,129.849 L667.278,129.849 C674.17,129.849 678.243,133.505 678.243,138.776 C678.243,141.542 677.041,143.633 674.429,145.353 C677.981,147.182 679.546,149.584 679.546,153.288 L679.546,153.288 Z" id="Fill-18" fill="#FFFFFE"></path>
            <path d="M317.185,39.833 L324.771,36.663 L309.686,21.576 L317.185,39.833 Z M351.772,29.075 L354.939,36.663 L370.024,21.576 L351.772,29.075 Z M354.939,66.834 L370.024,81.92 L362.53,63.665 L354.939,66.834 Z M324.771,36.663 L339.858,51.748 L339.858,0.545 L324.771,36.663 Z M354.939,36.663 L339.858,51.748 L391.058,51.748 L354.939,36.663 Z M339.858,102.954 L354.939,66.834 L339.858,51.748 L339.858,102.954 Z M324.771,66.834 L339.858,51.748 L288.654,51.748 L324.771,66.834 Z M327.942,74.421 L324.771,66.834 L309.686,81.92 L327.942,74.421 L327.942,74.421 Z" id="Fill-19" fill="#FFFFFE"></path>
        </g>
    </g>
</svg>